<mxfile host="app.diagrams.net" modified="2024-03-29T22:02:17.313Z" agent="Mozilla/5.0 (Windows NT 10.0; Win64; x64) AppleWebKit/537.36 (KHTML, like Gecko) Chrome/123.0.0.0 Safari/537.36" etag="xCwjyy4ITACwqUfNjJ59" version="24.1.0" type="device">
  <diagram name="Page-1" id="Bg6TIZxAyP4SN4toMaxQ">
    <mxGraphModel dx="1434" dy="780" grid="1" gridSize="10" guides="1" tooltips="1" connect="1" arrows="1" fold="1" page="1" pageScale="1" pageWidth="850" pageHeight="1100" math="0" shadow="0">
      <root>
        <mxCell id="0" />
        <mxCell id="1" parent="0" />
        <mxCell id="VR-iShKP18QyPiAKTZ2a-1" value="MyDate" style="swimlane;fontStyle=0;childLayout=stackLayout;horizontal=1;startSize=26;fillColor=none;horizontalStack=0;resizeParent=1;resizeParentMax=0;resizeLast=0;collapsible=1;marginBottom=0;whiteSpace=wrap;html=1;" vertex="1" parent="1">
          <mxGeometry x="310" y="190" width="230" height="220" as="geometry" />
        </mxCell>
        <mxCell id="VR-iShKP18QyPiAKTZ2a-2" value="- year: int&lt;div&gt;- month: int&lt;/div&gt;&lt;div&gt;- day: int&lt;/div&gt;" style="text;strokeColor=none;fillColor=none;align=left;verticalAlign=top;spacingLeft=4;spacingRight=4;overflow=hidden;rotatable=0;points=[[0,0.5],[1,0.5]];portConstraint=eastwest;whiteSpace=wrap;html=1;" vertex="1" parent="VR-iShKP18QyPiAKTZ2a-1">
          <mxGeometry y="26" width="230" height="54" as="geometry" />
        </mxCell>
        <mxCell id="VR-iShKP18QyPiAKTZ2a-5" value="" style="line;strokeWidth=1;fillColor=none;align=left;verticalAlign=middle;spacingTop=-1;spacingLeft=3;spacingRight=3;rotatable=0;labelPosition=right;points=[];portConstraint=eastwest;strokeColor=inherit;" vertex="1" parent="VR-iShKP18QyPiAKTZ2a-1">
          <mxGeometry y="80" width="230" height="8" as="geometry" />
        </mxCell>
        <mxCell id="VR-iShKP18QyPiAKTZ2a-3" value="+ MyDate()&lt;div&gt;+ MyDate(elapsedTime: long)&lt;/div&gt;&lt;div&gt;+ MyDate(year: int, month: int, day: int)&lt;/div&gt;&lt;div&gt;+ getYear(): int&lt;/div&gt;&lt;div&gt;+ getMonth(): int&lt;/div&gt;&lt;div&gt;+ getDay(): in&lt;/div&gt;&lt;div&gt;+setDate(elapsedTime: long): void&lt;/div&gt;&lt;div&gt;&lt;br&gt;&lt;/div&gt;" style="text;strokeColor=none;fillColor=none;align=left;verticalAlign=top;spacingLeft=4;spacingRight=4;overflow=hidden;rotatable=0;points=[[0,0.5],[1,0.5]];portConstraint=eastwest;whiteSpace=wrap;html=1;" vertex="1" parent="VR-iShKP18QyPiAKTZ2a-1">
          <mxGeometry y="88" width="230" height="132" as="geometry" />
        </mxCell>
      </root>
    </mxGraphModel>
  </diagram>
</mxfile>
